<?xml version="1.0" encoding="UTF-8" standalone="no"?>
<!DOCTYPE svg PUBLIC "-//W3C//DTD SVG 1.1//EN" "http://www.w3.org/Graphics/SVG/1.1/DTD/svg11.dtd">
<svg width="100%" height="100%" viewBox="0 0 500 500" version="1.1" xmlns="http://www.w3.org/2000/svg" xmlns:xlink="http://www.w3.org/1999/xlink" xml:space="preserve" xmlns:serif="http://www.serif.com/" style="fill-rule:evenodd;clip-rule:evenodd;stroke-linecap:round;stroke-miterlimit:1.5;">
    <g transform="matrix(1.125,0,0,1.142857,-31.25,-35.714286)">
        <g id="Blue" transform="matrix(1.027541,0,0,1.104101,-4.459648,50.709779)">
            <path d="M125.293,250.481L146.22,210.87" style="fill:none;stroke:rgb(25,55,88);stroke-width:6.89px;"/>
            <path d="M191,215L184,215" style="fill:none;stroke:rgb(25,55,88);stroke-width:6.89px;"/>
            <path d="M107,290L113,281.036" style="fill:none;stroke:rgb(25,55,88);stroke-width:6.89px;"/>
            <g transform="matrix(1.009882,-0.019455,-0.019455,1.038301,2.364495,-4.6551)">
                <path d="M184,215L152,278" style="fill:none;stroke:rgb(25,55,88);stroke-width:6.85px;"/>
            </g>
            <g transform="matrix(0.960465,0,0,1,4.467404,0)">
                <path d="M113,281.036L152,281.036" style="fill:none;stroke:rgb(25,55,88);stroke-width:7.01px;"/>
            </g>
            <path d="M159.041,186.601L177.322,151.998" style="fill:none;stroke:rgb(25,55,88);stroke-width:6.89px;"/>
            <path d="M188.79,130.291L194.906,118.714" style="fill:none;stroke:rgb(25,55,88);stroke-width:6.89px;"/>
            <path d="M188.79,130.291L194.906,118.714" style="fill:none;stroke:rgb(25,55,88);stroke-width:6.89px;"/>
            <path d="M188.79,130.291L194.906,118.714" style="fill:none;stroke:rgb(25,55,88);stroke-width:6.89px;"/>
            <path d="M205.935,95.178L230.377,50.644L246,22" style="fill:white;stroke:rgb(25,55,88);stroke-width:6.89px;"/>
            <g transform="matrix(0.989735,-0.019712,-0.019712,0.962148,5.38237,10.335471)">
                <path d="M296.365,118.714L339.657,201.844" style="fill:none;stroke:rgb(25,55,88);stroke-width:7.21px;"/>
            </g>
            <path d="M352.71,226.91L372.984,265.84" style="fill:none;stroke:rgb(25,55,88);stroke-width:6.89px;"/>
            <g transform="matrix(1.419559,-0,0,1.419559,-83.492206,-78.4575)">
                <path d="M199,187L232,119" style="fill:none;stroke:rgb(25,55,88);stroke-width:4.85px;"/>
            </g>
            <g transform="matrix(1.431213,0,-0,1.431213,-127.207904,-80.636875)">
                <path d="M261,119L295,187" style="fill:none;stroke:rgb(25,55,88);stroke-width:4.81px;"/>
            </g>
            <g transform="matrix(0.98492,-0.029139,-0.029139,0.943697,13.391589,25.876018)">
                <path d="M316,225L345,281.036" style="fill:none;stroke:rgb(25,55,88);stroke-width:7.38px;"/>
            </g>
            <g transform="matrix(0.90149,0,0,1,-15.417068,3.003795)">
                <path d="M260,212.056L275.563,212.056" style="fill:none;stroke:rgb(25,55,88);stroke-width:7.2px;"/>
            </g>
            <g transform="matrix(0.90149,0,0,1,25.612723,3.003795)">
                <path d="M260,212.056L275.563,212.056" style="fill:none;stroke:rgb(25,55,88);stroke-width:7.2px;"/>
            </g>
            <g transform="matrix(0.90149,0,0,1,25.612723,3.003795)">
                <path d="M260,212.056L275.563,212.056" style="fill:none;stroke:rgb(25,55,88);stroke-width:7.2px;"/>
            </g>
            <path d="M306,215L368,215" style="fill:none;stroke:rgb(25,55,88);stroke-width:6.89px;"/>
            <path d="M409,232L370,232" style="fill:none;stroke:rgb(25,55,88);stroke-width:6.89px;"/>
            <path d="M370,195L370,232" style="fill:none;stroke:rgb(25,55,88);stroke-width:6.89px;"/>
            <path d="M409,195L370,195" style="fill:none;stroke:rgb(25,55,88);stroke-width:6.89px;"/>
            <path d="M409,232L409,195" style="fill:none;stroke:rgb(25,55,88);stroke-width:6.89px;"/>
            <g>
                <path d="M409,232L370,232" style="fill:none;stroke:rgb(25,55,88);stroke-width:6.89px;"/>
                <path d="M370,195L370,232" style="fill:none;stroke:rgb(25,55,88);stroke-width:6.89px;"/>
                <path d="M409,195L370,195" style="fill:none;stroke:rgb(25,55,88);stroke-width:6.89px;"/>
                <path d="M409,232L409,195" style="fill:none;stroke:rgb(25,55,88);stroke-width:6.89px;"/>
            </g>
            <g transform="matrix(1,0,0,1,-52.5,-106)">
                <path d="M409,232L370,232" style="fill:none;stroke:rgb(25,55,88);stroke-width:6.89px;"/>
                <path d="M370,195L370,232" style="fill:none;stroke:rgb(25,55,88);stroke-width:6.89px;"/>
                <path d="M409,195L370,195" style="fill:none;stroke:rgb(25,55,88);stroke-width:6.89px;"/>
                <path d="M409,232L409,195" style="fill:none;stroke:rgb(25,55,88);stroke-width:6.89px;"/>
            </g>
            <g transform="matrix(1,0,0,1,-1,106)">
                <path d="M409,232L370,232" style="fill:none;stroke:rgb(25,55,88);stroke-width:6.89px;"/>
                <path d="M370,195L370,232" style="fill:none;stroke:rgb(25,55,88);stroke-width:6.89px;"/>
                <path d="M409,195L370,195" style="fill:none;stroke:rgb(25,55,88);stroke-width:6.89px;"/>
                <path d="M409,232L409,195" style="fill:none;stroke:rgb(25,55,88);stroke-width:6.89px;"/>
            </g>
            <g transform="matrix(1,0,0,1,-295,107)">
                <path d="M409,232L370,232" style="fill:none;stroke:rgb(25,55,88);stroke-width:6.89px;"/>
                <path d="M370,195L370,232" style="fill:none;stroke:rgb(25,55,88);stroke-width:6.89px;"/>
                <path d="M409,195L370,195" style="fill:none;stroke:rgb(25,55,88);stroke-width:6.89px;"/>
                <path d="M409,232L409,195" style="fill:none;stroke:rgb(25,55,88);stroke-width:6.89px;"/>
            </g>
            <path d="M234,230.676L194.906,230.676" style="fill:none;stroke:rgb(25,55,88);stroke-width:6.89px;"/>
            <path d="M125.293,321.5L146.22,321.5" style="fill:none;stroke:rgb(25,55,88);stroke-width:6.89px;"/>
            <path d="M191.848,230.676L146.22,321.5" style="fill:none;stroke:rgb(25,55,88);stroke-width:6.89px;"/>
            <path d="M352,321.5L358,321.5" style="fill:none;stroke:rgb(25,55,88);stroke-width:6.89px;"/>
            <path d="M259,230.676L305,230.676" style="fill:none;stroke:rgb(25,55,88);stroke-width:6.89px;"/>
            <path d="M352,321.5L305,230.676" style="fill:none;stroke:rgb(25,55,88);stroke-width:6.89px;"/>
            <g transform="matrix(0.95598,-0.081751,-0.081751,0.848176,12.627428,23.450938)">
                <path d="M246,22L295,113" style="fill:none;stroke:rgb(25,55,88);stroke-width:8.43px;"/>
            </g>
            <path d="M168.181,72L168.181,107.5" style="fill:none;stroke:rgb(25,55,88);stroke-width:6.89px;"/>
            <path d="M222.423,107.5L168.181,107.5M316.97,107.5L270.669,107.5" style="fill:white;stroke:rgb(25,55,88);stroke-width:6.89px;"/>
            <g transform="matrix(1,0,0,1,-283.706966,-13)">
                <path d="M409,232L370,232" style="fill:none;stroke:rgb(25,55,88);stroke-width:6.89px;"/>
                <path d="M370,195L370,232" style="fill:none;stroke:rgb(25,55,88);stroke-width:6.89px;"/>
                <path d="M409,195L370,195" style="fill:none;stroke:rgb(25,55,88);stroke-width:6.89px;"/>
                <path d="M409,232L409,195" style="fill:none;stroke:rgb(25,55,88);stroke-width:6.89px;"/>
            </g>
            <path d="M125.293,197.844L232,197.844" style="fill:none;stroke:rgb(25,55,88);stroke-width:6.89px;"/>
            <path d="M260,197.844L337,197.844" style="fill:none;stroke:rgb(25,55,88);stroke-width:6.89px;"/>
            <path d="M184,140L131.729,141" style="fill:none;stroke:rgb(25,55,88);stroke-width:6.89px;"/>
        </g>
        <g id="Sky-Blue" serif:id="Sky Blue" transform="matrix(1.027541,0,0,1.104101,-4.459648,51.81388)">
            <g transform="matrix(1,0,0,1,5.719586,-0.599767)">
                <path d="M199,305L199,246.375" style="fill:none;stroke:rgb(0,249,254);stroke-width:6.89px;stroke-linejoin:round;"/>
            </g>
            <g transform="matrix(0.993965,0,0,0.993965,0.82675,0.35915)">
                <path d="M137,265.84L165.465,212.056" style="fill:none;stroke:rgb(0,249,254);stroke-width:6.93px;stroke-linejoin:round;"/>
                <path d="M179,187L214,119" style="fill:none;stroke:rgb(0,249,254);stroke-width:6.93px;stroke-linejoin:round;"/>
                <path d="M232,85L245.913,59.514L260,85" style="fill:white;fill-opacity:0;stroke:rgb(0,249,254);stroke-width:6.93px;stroke-linejoin:round;"/>
                <g transform="matrix(1.315789,0,0,1.315789,-87.789474,-37.578947)">
                    <path d="M278,119L297,157" style="fill:none;stroke:rgb(0,249,254);stroke-width:5.27px;stroke-linejoin:round;"/>
                </g>
                <path d="M333,226L359,277" style="fill:none;stroke:rgb(0,249,254);stroke-width:6.93px;stroke-linejoin:round;"/>
            </g>
            <path d="M291,246.546L291,300" style="fill:none;stroke:rgb(0,249,254);stroke-width:6.89px;stroke-linejoin:round;"/>
            <path d="M246.5,158.279L246.5,265.84" style="fill:none;stroke:rgb(0,249,254);stroke-width:6.89px;stroke-linejoin:round;"/>
            <g transform="matrix(1.055556,0,0,1,-7.611111,0)">
                <path d="M137,265.84L83,265.84" style="fill:none;stroke:rgb(0,249,254);stroke-width:6.71px;stroke-linejoin:round;"/>
            </g>
            <g transform="matrix(1.055556,0,0,1,-17.888889,0)">
                <path d="M358,275.688L412,275.688" style="fill:none;stroke:rgb(0,249,254);stroke-width:6.71px;stroke-linejoin:round;"/>
            </g>
            <g transform="matrix(1,0,0,1,-5,-5)">
                <circle cx="119.64" cy="145.64" r="12.64" style="fill:white;fill-opacity:0;stroke:rgb(0,249,254);stroke-width:6.89px;stroke-linejoin:round;"/>
            </g>
            <g transform="matrix(1,0,0,1,46,-91)">
                <circle cx="119.64" cy="145.64" r="12.64" style="fill:white;fill-opacity:0;stroke:rgb(0,249,254);stroke-width:6.89px;stroke-linejoin:round;"/>
            </g>
            <g transform="matrix(1,0,0,1,-54,120.200593)">
                <circle cx="119.64" cy="145.64" r="12.64" style="fill:white;fill-opacity:0;stroke:rgb(0,249,254);stroke-width:6.89px;stroke-linejoin:round;"/>
            </g>
            <g transform="matrix(1,0,0,1,310,130.048022)">
                <circle cx="119.64" cy="145.64" r="12.64" style="fill:white;fill-opacity:0;stroke:rgb(0,249,254);stroke-width:6.89px;stroke-linejoin:round;"/>
            </g>
            <g transform="matrix(1,0,0,1,127,132.840116)">
                <circle cx="119.64" cy="145.64" r="12.64" style="fill:white;fill-opacity:0;stroke:rgb(0,249,254);stroke-width:6.89px;stroke-linejoin:round;"/>
            </g>
            <g transform="matrix(1,0,0,1,171.360477,169)">
                <circle cx="119.64" cy="145.64" r="12.64" style="fill:white;fill-opacity:0;stroke:rgb(0,249,254);stroke-width:6.89px;stroke-linejoin:round;"/>
            </g>
            <g transform="matrix(1,0,0,1,85.080063,171.400233)">
                <circle cx="119.64" cy="145.64" r="12.64" style="fill:white;fill-opacity:0;stroke:rgb(0,249,254);stroke-width:6.89px;stroke-linejoin:round;"/>
            </g>
            <path d="M230,163L246.64,134L264,163L230,163Z" style="fill:rgb(0,250,255);stroke:rgb(0,249,254);stroke-width:6.89px;stroke-linejoin:round;"/>
            <g transform="matrix(1,0,0,1,3.249377,-2.470209)">
                <circle cx="201.47" cy="216.53" r="4.47" style="fill:rgb(0,250,255);stroke:rgb(0,249,254);stroke-width:6.89px;stroke-linejoin:round;"/>
            </g>
            <g transform="matrix(1,0,0,1,88.352615,-2.529791)">
                <circle cx="201.47" cy="216.53" r="4.47" style="fill:rgb(0,250,255);stroke:rgb(0,249,254);stroke-width:6.89px;stroke-linejoin:round;"/>
            </g>
            <g transform="matrix(1,0,0,1,109.02918,-34)">
                <circle cx="201.47" cy="216.53" r="4.47" style="fill:rgb(0,250,255);stroke:rgb(0,249,254);stroke-width:6.89px;stroke-linejoin:round;"/>
            </g>
        </g>
    </g>
</svg>
